<svg width="220" height="68" viewBox="0 0 220 68" fill="none" xmlns="http://www.w3.org/2000/svg">
<path d="M-0.000291206 21.9885L13.3417 40.8385L22.9953 19.859L-0.000291206 21.9885ZM15.6559 31.3876C44.4557 42.0269 88.0151 46.9609 122.431 27.7367L120.481 24.2445C87.4855 42.675 45.2638 38.0613 17.042 27.6354L15.6559 31.3876ZM122.431 27.7367C127.674 24.8082 131.318 21.9307 133.509 19.1221C135.725 16.2819 136.574 13.3327 135.771 10.5104C134.994 7.77868 132.808 5.67985 130.105 4.1445C127.374 2.59335 123.877 1.47388 120 0.795482C112.242 -0.561995 102.598 -0.217024 93.6416 2.35844C84.6944 4.93139 76.2131 9.79949 71.1033 17.6804L74.4596 19.8566C78.8721 13.051 86.3679 8.61226 94.7471 6.20265C103.117 3.79559 112.148 3.48233 119.31 4.73562C122.893 5.36261 125.917 6.36578 128.129 7.6226C130.37 8.89521 131.55 10.2897 131.924 11.6047C132.272 12.8291 132.057 14.48 130.355 16.6616C128.629 18.8746 125.501 21.4402 120.481 24.2445L122.431 27.7367ZM71.1033 17.6804C68.5592 21.6043 67.2335 25.583 67.2166 29.5263C67.1997 33.4801 68.4997 37.2392 70.9433 40.7054C75.7781 47.5632 85.1207 53.337 98.0703 57.7323C124.046 66.5489 165.701 70.2097 219.269 64.8497L218.871 60.8696C165.584 66.2014 124.572 62.5031 99.3559 53.9445C86.7097 49.6522 78.3253 44.2343 74.2126 38.4006C72.1825 35.5211 71.2037 32.5596 71.2166 29.5434C71.2296 26.5166 72.2425 23.2759 74.4596 19.8566L71.1033 17.6804Z" fill="#0D80FD"/>
</svg>
