<svg width="173" height="162" viewBox="0 0 173 162" fill="none" xmlns="http://www.w3.org/2000/svg">
<path d="M136.31 0H142.07C150.42 2.8 155.46 9.12 159.36 16.53C161.1 19.84 162.68 23.26 163.97 26.76C168.49 39.03 170.86 51.76 171.86 64.77C172.1 67.82 172.47 70.87 172.79 73.91V88.31C172.64 88.73 172.39 89.15 172.34 89.58C171.67 96.25 171.29 102.96 170.33 109.59C168.51 122.06 165.34 134.17 159.3 145.34C155.28 152.78 150.28 159.28 141.59 161.74H136.31C133.16 159.81 129.92 158 126.9 155.88C125.39 154.82 124.3 153.18 122.87 151.65C119.24 156.57 114.83 160.19 108.95 161.74H104.15C98.54 159.91 94.12 156.42 90.63 151.45C86.93 156.59 82.48 160.02 76.79 161.74H71.51C66.5 159.99 62.34 157.03 59.16 152.79C57.31 150.33 55.67 147.71 53.83 145.01C49.53 152.63 44.6 159.5 35.51 161.74H30.71C24.93 159.77 20.33 156.2 17.06 151.1C14.7 147.42 12.43 143.62 10.68 139.63C4.91 126.52 2.3 112.61 0.96 98.42C0.68 95.52 0.32 92.64 0 89.75C0 83.83 0 77.91 0 71.99C0.15 71.65 0.41 71.32 0.44 70.96C0.95 65.56 1.24 60.14 1.97 54.78C3.66 42.41 6.52 30.33 12.04 19.04C16.15 10.66 21.22 3.14 30.72 0C32.48 0 34.24 0 36 0C37.94 0.85 40.01 1.49 41.8 2.58C46.42 5.38 49.6 9.58 52.34 14.15C52.84 14.99 53.36 15.81 54 16.86C58.2 9.19 63.16 2.8 71.52 0H76.8C80.86 1.31 84.55 3.23 87.44 6.47C88.48 7.63 89.53 8.78 90.74 10.12C94.22 5.22 98.61 1.81 104.16 0.01H108.96C114.95 1.46 119.27 5.34 123.05 10.19C126.57 5.26 130.9 1.91 136.32 0.01L136.31 0ZM1.55 80.74C1.98 87.43 2.26 94.14 2.87 100.82C4 113.19 6.47 125.29 11.06 136.88C13.84 143.9 17.26 150.58 22.99 155.75C29.43 161.56 36.88 161.99 43.24 156.15C46.7 152.97 49.29 148.8 52.02 144.9C52.62 144.04 52.52 142.33 52.15 141.2C50.4 135.9 48.09 130.77 46.63 125.41C41.28 105.78 40.1 85.77 41.69 65.55C42.93 49.77 45.9 34.41 52.44 19.87C52.75 19.19 52.78 18.02 52.39 17.45C49.95 13.82 47.75 9.9 44.73 6.81C37.54 -0.52 29.29 -0.3 21.98 6.93C16.51 12.33 13.21 19.07 10.57 26.15C4.01 43.75 1.91 62.08 1.55 80.74ZM171.31 80.86C170.69 72.9 170.28 64.91 169.41 56.98C168.09 45.03 165.4 33.37 160.62 22.28C158.04 16.3 154.89 10.64 149.99 6.19C145.94 2.52 141.33 0.39 135.74 1.99C130.9 3.37 127.48 6.73 124.6 10.66C124.28 11.09 124.5 12.16 124.8 12.76C125.87 14.9 127.19 16.92 128.22 19.08C135.43 34.17 138.3 50.31 139.61 66.8C140.77 81.52 140.15 96.2 137.72 110.77C135.6 123.52 132.31 135.91 125.78 147.22C124.533 149.38 124.713 151.397 126.32 153.27C134.08 162.26 143.28 162.58 151.49 154.05C156.23 149.13 159.27 143.13 161.7 136.84C168.66 118.84 170.79 100.02 171.32 80.86H171.31ZM123.29 149.29C125.43 144.82 127.49 141.02 129.09 137.04C134.82 122.81 137.3 107.85 138.11 92.65C139.16 73.01 137.95 53.53 132.47 34.5C130.3 26.97 127.55 19.67 123.18 13.03C122.89 13.26 122.65 13.37 122.53 13.56C122.01 14.37 121.5 15.18 121.04 16.02C117.29 22.76 114.69 29.96 112.8 37.41C108.55 54.18 107.09 71.22 107.79 88.48C108.37 102.91 110.32 117.1 114.73 130.88C116.73 137.12 119.23 143.14 123.29 149.28V149.29ZM90.61 149.02C91.77 146.96 92.78 145.34 93.63 143.64C101.46 127.99 104.28 111.12 105.56 93.91C106.62 79.59 105.96 65.32 103.67 51.15C101.76 39.36 98.81 27.87 93.2 17.22C92.44 15.78 91.56 14.39 90.33 12.28C88.02 17.21 85.78 21.36 84.09 25.72C79.02 38.86 76.65 52.59 75.7 66.6C74.36 86.5 75.46 106.19 80.65 125.53C82.83 133.65 85.73 141.49 90.6 149.01L90.61 149.02ZM74 160.28C79.25 160.3 86.79 155.65 89.08 150.96C89.34 150.42 89.08 149.46 88.76 148.83C87.23 145.76 85.41 142.82 84.04 139.68C77.81 125.37 75.18 110.22 73.99 94.78C72.86 80.13 73.48 65.54 75.87 51.04C77.89 38.77 81.03 26.82 87.06 15.82C89.82 10.79 89.87 10.82 85.7 6.78C85.36 6.45 85 6.12 84.64 5.81C78.03 0.26 71.3 0 64.82 5.14C60.6 8.48 57.69 12.89 55.27 17.62C54.96 18.23 55.22 19.27 55.48 20.02C57.26 25.06 59.46 29.98 60.88 35.11C66.69 56.07 67.84 77.44 65.84 99.04C64.46 113.92 61.54 128.42 55.28 142.11C55 142.72 54.98 143.79 55.34 144.29C58.11 148.18 60.75 152.2 63.92 155.75C66.53 158.67 70.18 160.1 73.99 160.3L74 160.28ZM53.94 140.99C69.47 108.8 68.11 48.58 53.9 20.89C39.25 41.91 39.19 117.51 53.94 140.99ZM106.74 62.01C107.38 57.58 107.84 53.78 108.49 50.02C110.51 38.17 113.57 26.64 119.34 15.98C122.32 10.47 122.36 10.49 117.63 6.27C117.15 5.84 116.67 5.42 116.16 5.03C112.36 2.15 108.22 0.61 103.4 1.95C98.52 3.3 95.14 6.66 92.21 10.53C91.86 10.99 92.1 12.15 92.42 12.81C94.03 16.1 95.96 19.25 97.41 22.61C102.74 34.96 105.19 48.03 106.74 62.01ZM106.7 100.38C106.32 103.22 106.01 106.07 105.56 108.89C103.3 122.99 99.91 136.71 92.34 149.07C91.98 149.66 92.03 151.02 92.46 151.51C94.32 153.58 96.23 155.67 98.43 157.34C101.73 159.84 105.51 160.9 109.71 159.87C114.83 158.62 118.34 155.2 121.35 151.19C121.7 150.73 121.48 149.57 121.16 148.91C119.68 145.91 117.91 143.04 116.55 139.99C110.96 127.39 108.45 114.02 106.7 100.37V100.38Z" fill="#1673D8"/>
</svg>
