<svg width="240" height="183" viewBox="0 0 240 183" fill="none" xmlns="http://www.w3.org/2000/svg">
<circle cx="27" cy="27" r="7" fill="#1673D8"/>
<circle cx="58" cy="27" r="7" fill="#1673D8"/>
<circle cx="89" cy="27" r="7" fill="#1673D8"/>
<circle cx="120" cy="27" r="7" fill="#1673D8"/>
<circle cx="151" cy="27" r="7" fill="#1673D8"/>
<circle cx="182" cy="27" r="7" fill="#1673D8"/>
<circle cx="213" cy="27" r="7" fill="#1673D8"/>
<circle cx="27" cy="70" r="7" fill="#1673D8"/>
<circle cx="58" cy="70" r="7" fill="#1673D8"/>
<circle cx="89" cy="70" r="7" fill="#1673D8"/>
<circle cx="120" cy="70" r="7" fill="#1673D8"/>
<circle cx="151" cy="70" r="7" fill="#1673D8"/>
<circle cx="182" cy="70" r="7" fill="#1673D8"/>
<circle cx="213" cy="70" r="7" fill="#1673D8"/>
<circle cx="27" cy="113" r="7" fill="#1673D8"/>
<circle cx="58" cy="113" r="7" fill="#1673D8"/>
<circle cx="89" cy="113" r="7" fill="#1673D8"/>
<circle cx="120" cy="113" r="7" fill="#1673D8"/>
<circle cx="151" cy="113" r="7" fill="#1673D8"/>
<circle cx="182" cy="113" r="7" fill="#1673D8"/>
<circle cx="213" cy="113" r="7" fill="#1673D8"/>
<circle cx="27" cy="156" r="7" fill="#1673D8"/>
<circle cx="58" cy="156" r="7" fill="#1673D8"/>
<circle cx="89" cy="156" r="7" fill="#1673D8"/>
<circle cx="120" cy="156" r="7" fill="#1673D8"/>
<circle cx="151" cy="156" r="7" fill="#1673D8"/>
<circle cx="182" cy="156" r="7" fill="#1673D8"/>
<circle cx="213" cy="156" r="7" fill="#1673D8"/>
</svg>
