<?xml version="1.0" encoding="UTF-8"?>
<svg id="Layer_2" data-name="Layer 2" xmlns="http://www.w3.org/2000/svg" viewBox="0 0 257 41.28">
  <defs>
    <style>
      .cls-1 {
        fill: none;
        stroke: #000;
      }
    </style>
  </defs>
  <g id="Layer_1-2" data-name="Layer 1">
    <path class="cls-1" d="M71,1.2s4.17,39.26,7.99,39.26S81.42,1.2,85.93,1.2s4.86,39.26,7.99,39.26,2.78-32.71,6.6-39.26c3.82-6.54,2.78,34.78,6.6,39.26,3.82,4.48,4.51-39.26,8.33-39.26s1.39,35.47,6.25,39.26c4.86,3.79,1.74-43.04,7.64-39.26,5.9,3.79,1.74,39.26,5.9,39.26S140.1,1.2,143.92,1.2c3.82,0,6.25,39.26,6.25,39.26"/>
    <path class="cls-1" d="M49,20.57h208"/>
    <path class="cls-1" d="M0,20.57H43.75"/>
  </g>
</svg>