<svg width="243" height="174" viewBox="0 0 243 174" fill="none" xmlns="http://www.w3.org/2000/svg">
<path d="M54.675 8.51748C54.675 13.2216 50.8672 17.035 46.17 17.035C41.4728 17.035 37.665 13.2216 37.665 8.51748C37.665 3.81341 41.4728 0 46.17 0C50.8672 0 54.675 3.81341 54.675 8.51748Z" fill="#1673D8"/>
<path d="M167.67 8.51748C167.67 13.2216 163.862 17.035 159.165 17.035C154.468 17.035 150.66 13.2216 150.66 8.51748C150.66 3.81341 154.468 0 159.165 0C163.862 0 167.67 3.81341 167.67 8.51748Z" fill="#1673D8"/>
<path d="M205.335 8.51748C205.335 13.2216 201.527 17.035 196.83 17.035C192.133 17.035 188.325 13.2216 188.325 8.51748C188.325 3.81341 192.133 0 196.83 0C201.527 0 205.335 3.81341 205.335 8.51748Z" fill="#1673D8"/>
<path d="M243 8.51748C243 13.2216 239.192 17.035 234.495 17.035C229.798 17.035 225.99 13.2216 225.99 8.51748C225.99 3.81341 229.798 0 234.495 0C239.192 0 243 3.81341 243 8.51748Z" fill="#1673D8"/>
<path d="M17.01 60.8392C17.01 65.5432 13.2022 69.3566 8.505 69.3566C3.80782 69.3566 0 65.5432 0 60.8392C0 56.1351 3.80782 52.3217 8.505 52.3217C13.2022 52.3217 17.01 56.1351 17.01 60.8392Z" fill="#1673D8"/>
<path d="M54.675 60.8392C54.675 65.5432 50.8672 69.3566 46.17 69.3566C41.4728 69.3566 37.665 65.5432 37.665 60.8392C37.665 56.1351 41.4728 52.3217 46.17 52.3217C50.8672 52.3217 54.675 56.1351 54.675 60.8392Z" fill="#1673D8"/>
<path d="M92.34 60.8392C92.34 65.5432 88.5322 69.3566 83.835 69.3566C79.1378 69.3566 75.33 65.5432 75.33 60.8392C75.33 56.1351 79.1378 52.3217 83.835 52.3217C88.5322 52.3217 92.34 56.1351 92.34 60.8392Z" fill="#1673D8"/>
<path d="M130.005 60.8392C130.005 65.5432 126.197 69.3566 121.5 69.3566C116.803 69.3566 112.995 65.5432 112.995 60.8392C112.995 56.1351 116.803 52.3217 121.5 52.3217C126.197 52.3217 130.005 56.1351 130.005 60.8392Z" fill="#1673D8"/>
<path d="M167.67 60.8392C167.67 65.5432 163.862 69.3566 159.165 69.3566C154.468 69.3566 150.66 65.5432 150.66 60.8392C150.66 56.1351 154.468 52.3217 159.165 52.3217C163.862 52.3217 167.67 56.1351 167.67 60.8392Z" fill="#1673D8"/>
<path d="M205.335 60.8392C205.335 65.5432 201.527 69.3566 196.83 69.3566C192.133 69.3566 188.325 65.5432 188.325 60.8392C188.325 56.1351 192.133 52.3217 196.83 52.3217C201.527 52.3217 205.335 56.1351 205.335 60.8392Z" fill="#1673D8"/>
<path d="M243 60.8392C243 65.5432 239.192 69.3566 234.495 69.3566C229.798 69.3566 225.99 65.5432 225.99 60.8392C225.99 56.1351 229.798 52.3217 234.495 52.3217C239.192 52.3217 243 56.1351 243 60.8392Z" fill="#1673D8"/>
<path d="M92.34 113.161C92.34 117.865 88.5322 121.678 83.835 121.678C79.1378 121.678 75.33 117.865 75.33 113.161C75.33 108.457 79.1378 104.643 83.835 104.643C88.5322 104.643 92.34 108.457 92.34 113.161Z" fill="#1673D8"/>
<path d="M130.005 113.161C130.005 117.865 126.197 121.678 121.5 121.678C116.803 121.678 112.995 117.865 112.995 113.161C112.995 108.457 116.803 104.643 121.5 104.643C126.197 104.643 130.005 108.457 130.005 113.161Z" fill="#1673D8"/>
<path d="M167.67 113.161C167.67 117.865 163.862 121.678 159.165 121.678C154.468 121.678 150.66 117.865 150.66 113.161C150.66 108.457 154.468 104.643 159.165 104.643C163.862 104.643 167.67 108.457 167.67 113.161Z" fill="#1673D8"/>
<path d="M205.335 113.161C205.335 117.865 201.527 121.678 196.83 121.678C192.133 121.678 188.325 117.865 188.325 113.161C188.325 108.457 192.133 104.643 196.83 104.643C201.527 104.643 205.335 108.457 205.335 113.161Z" fill="#1673D8"/>
<path d="M243 113.161C243 117.865 239.192 121.678 234.495 121.678C229.798 121.678 225.99 117.865 225.99 113.161C225.99 108.457 229.798 104.643 234.495 104.643C239.192 104.643 243 108.457 243 113.161Z" fill="#1673D8"/>
<path d="M17.01 165.483C17.01 170.187 13.2022 174 8.505 174C3.80782 174 0 170.187 0 165.483C0 160.778 3.80782 156.965 8.505 156.965C13.2022 156.965 17.01 160.778 17.01 165.483Z" fill="#1673D8"/>
<path d="M54.675 165.483C54.675 170.187 50.8672 174 46.17 174C41.4728 174 37.665 170.187 37.665 165.483C37.665 160.778 41.4728 156.965 46.17 156.965C50.8672 156.965 54.675 160.778 54.675 165.483Z" fill="#1673D8"/>
<path d="M92.34 165.483C92.34 170.187 88.5322 174 83.835 174C79.1378 174 75.33 170.187 75.33 165.483C75.33 160.778 79.1378 156.965 83.835 156.965C88.5322 156.965 92.34 160.778 92.34 165.483Z" fill="#1673D8"/>
<path d="M130.005 165.483C130.005 170.187 126.197 174 121.5 174C116.803 174 112.995 170.187 112.995 165.483C112.995 160.778 116.803 156.965 121.5 156.965C126.197 156.965 130.005 160.778 130.005 165.483Z" fill="#1673D8"/>
<path d="M167.67 165.483C167.67 170.187 163.862 174 159.165 174C154.468 174 150.66 170.187 150.66 165.483C150.66 160.778 154.468 156.965 159.165 156.965C163.862 156.965 167.67 160.778 167.67 165.483Z" fill="#1673D8"/>
<path d="M205.335 165.483C205.335 170.187 201.527 174 196.83 174C192.133 174 188.325 170.187 188.325 165.483C188.325 160.778 192.133 156.965 196.83 156.965C201.527 156.965 205.335 160.778 205.335 165.483Z" fill="#1673D8"/>
<path d="M243 165.483C243 170.187 239.192 174 234.495 174C229.798 174 225.99 170.187 225.99 165.483C225.99 160.778 229.798 156.965 234.495 156.965C239.192 156.965 243 160.778 243 165.483Z" fill="#1673D8"/>
</svg>
