<svg width="333" height="238" viewBox="0 0 333 238" fill="none" xmlns="http://www.w3.org/2000/svg">
<path d="M74.925 11.6504C74.925 18.0847 69.7069 23.3007 63.27 23.3007C56.8331 23.3007 51.615 18.0847 51.615 11.6504C51.615 5.21604 56.8331 0 63.27 0C69.7069 0 74.925 5.21604 74.925 11.6504Z" fill="#1673D8"/>
<path d="M229.77 11.6504C229.77 18.0847 224.552 23.3007 218.115 23.3007C211.678 23.3007 206.46 18.0847 206.46 11.6504C206.46 5.21604 211.678 0 218.115 0C224.552 0 229.77 5.21604 229.77 11.6504Z" fill="#1673D8"/>
<path d="M281.385 11.6504C281.385 18.0847 276.167 23.3007 269.73 23.3007C263.293 23.3007 258.075 18.0847 258.075 11.6504C258.075 5.21604 263.293 0 269.73 0C276.167 0 281.385 5.21604 281.385 11.6504Z" fill="#1673D8"/>
<path d="M333 11.6504C333 18.0847 327.782 23.3007 321.345 23.3007C314.908 23.3007 309.69 18.0847 309.69 11.6504C309.69 5.21604 314.908 0 321.345 0C327.782 0 333 5.21604 333 11.6504Z" fill="#1673D8"/>
<path d="M23.31 83.2168C23.31 89.6511 18.0919 94.8671 11.655 94.8671C5.21812 94.8671 0 89.6511 0 83.2168C0 76.7825 5.21812 71.5664 11.655 71.5664C18.0919 71.5664 23.31 76.7825 23.31 83.2168Z" fill="#1673D8"/>
<path d="M74.925 83.2168C74.925 89.6511 69.7069 94.8671 63.27 94.8671C56.8331 94.8671 51.615 89.6511 51.615 83.2168C51.615 76.7825 56.8331 71.5664 63.27 71.5664C69.7069 71.5664 74.925 76.7825 74.925 83.2168Z" fill="#1673D8"/>
<path d="M126.54 83.2168C126.54 89.6511 121.322 94.8671 114.885 94.8671C108.448 94.8671 103.23 89.6511 103.23 83.2168C103.23 76.7825 108.448 71.5664 114.885 71.5664C121.322 71.5664 126.54 76.7825 126.54 83.2168Z" fill="#1673D8"/>
<path d="M178.155 83.2168C178.155 89.6511 172.937 94.8671 166.5 94.8671C160.063 94.8671 154.845 89.6511 154.845 83.2168C154.845 76.7825 160.063 71.5664 166.5 71.5664C172.937 71.5664 178.155 76.7825 178.155 83.2168Z" fill="#1673D8"/>
<path d="M229.77 83.2168C229.77 89.6511 224.552 94.8671 218.115 94.8671C211.678 94.8671 206.46 89.6511 206.46 83.2168C206.46 76.7825 211.678 71.5664 218.115 71.5664C224.552 71.5664 229.77 76.7825 229.77 83.2168Z" fill="#1673D8"/>
<path d="M281.385 83.2168C281.385 89.6511 276.167 94.8671 269.73 94.8671C263.293 94.8671 258.075 89.6511 258.075 83.2168C258.075 76.7825 263.293 71.5664 269.73 71.5664C276.167 71.5664 281.385 76.7825 281.385 83.2168Z" fill="#1673D8"/>
<path d="M333 83.2168C333 89.6511 327.782 94.8671 321.345 94.8671C314.908 94.8671 309.69 89.6511 309.69 83.2168C309.69 76.7825 314.908 71.5664 321.345 71.5664C327.782 71.5664 333 76.7825 333 83.2168Z" fill="#1673D8"/>
<path d="M126.54 154.783C126.54 161.218 121.322 166.434 114.885 166.434C108.448 166.434 103.23 161.218 103.23 154.783C103.23 148.349 108.448 143.133 114.885 143.133C121.322 143.133 126.54 148.349 126.54 154.783Z" fill="#1673D8"/>
<path d="M178.155 154.783C178.155 161.218 172.937 166.434 166.5 166.434C160.063 166.434 154.845 161.218 154.845 154.783C154.845 148.349 160.063 143.133 166.5 143.133C172.937 143.133 178.155 148.349 178.155 154.783Z" fill="#1673D8"/>
<path d="M229.77 154.783C229.77 161.218 224.552 166.434 218.115 166.434C211.678 166.434 206.46 161.218 206.46 154.783C206.46 148.349 211.678 143.133 218.115 143.133C224.552 143.133 229.77 148.349 229.77 154.783Z" fill="#1673D8"/>
<path d="M281.385 154.783C281.385 161.218 276.167 166.434 269.73 166.434C263.293 166.434 258.075 161.218 258.075 154.783C258.075 148.349 263.293 143.133 269.73 143.133C276.167 143.133 281.385 148.349 281.385 154.783Z" fill="#1673D8"/>
<path d="M333 154.783C333 161.218 327.782 166.434 321.345 166.434C314.908 166.434 309.69 161.218 309.69 154.783C309.69 148.349 314.908 143.133 321.345 143.133C327.782 143.133 333 148.349 333 154.783Z" fill="#1673D8"/>
<path d="M23.31 226.35C23.31 232.784 18.0919 238 11.655 238C5.21812 238 0 232.784 0 226.35C0 219.915 5.21812 214.699 11.655 214.699C18.0919 214.699 23.31 219.915 23.31 226.35Z" fill="#1673D8"/>
<path d="M74.925 226.35C74.925 232.784 69.7069 238 63.27 238C56.8331 238 51.615 232.784 51.615 226.35C51.615 219.915 56.8331 214.699 63.27 214.699C69.7069 214.699 74.925 219.915 74.925 226.35Z" fill="#1673D8"/>
<path d="M126.54 226.35C126.54 232.784 121.322 238 114.885 238C108.448 238 103.23 232.784 103.23 226.35C103.23 219.915 108.448 214.699 114.885 214.699C121.322 214.699 126.54 219.915 126.54 226.35Z" fill="#1673D8"/>
<path d="M178.155 226.35C178.155 232.784 172.937 238 166.5 238C160.063 238 154.845 232.784 154.845 226.35C154.845 219.915 160.063 214.699 166.5 214.699C172.937 214.699 178.155 219.915 178.155 226.35Z" fill="#1673D8"/>
<path d="M229.77 226.35C229.77 232.784 224.552 238 218.115 238C211.678 238 206.46 232.784 206.46 226.35C206.46 219.915 211.678 214.699 218.115 214.699C224.552 214.699 229.77 219.915 229.77 226.35Z" fill="#1673D8"/>
<path d="M281.385 226.35C281.385 232.784 276.167 238 269.73 238C263.293 238 258.075 232.784 258.075 226.35C258.075 219.915 263.293 214.699 269.73 214.699C276.167 214.699 281.385 219.915 281.385 226.35Z" fill="#1673D8"/>
<path d="M333 226.35C333 232.784 327.782 238 321.345 238C314.908 238 309.69 232.784 309.69 226.35C309.69 219.915 314.908 214.699 321.345 214.699C327.782 214.699 333 219.915 333 226.35Z" fill="#1673D8"/>
</svg>
