<svg width="19" height="258" viewBox="0 0 19 258" fill="none" xmlns="http://www.w3.org/2000/svg">
<path d="M0 47.1088C0 44.7651 0 42.4214 0 40.0777C3.46918 36.7232 6.70416 33.0904 10.4661 30.0875C17.2435 24.653 17.2142 19.2771 10.3344 13.8719C6.63097 10.9716 3.42527 7.45597 0 4.2187C0 2.81247 0 1.40623 0 0H2.81048C3.3228 4.30659 5.92835 7.11906 9.39754 9.36024C13.6425 12.1141 17.5069 15.2196 18.9707 20.3904V24.6091C16.8482 29.5456 12.6179 32.402 8.46071 35.3756C1.34669 40.4585 1.34669 46.2446 8.31433 51.4447C9.14869 52.0746 9.99769 52.6898 10.876 53.2611C14.6965 55.6927 17.6826 58.7982 18.9707 63.2805V67.4992C16.9507 71.8644 13.5547 74.9259 9.57319 77.4308C8.40216 78.1778 7.27504 79.0274 6.26502 79.9796C2.2396 83.7442 2.21032 88.7539 6.22111 92.5038C7.65562 93.8515 9.26579 95.0526 10.9199 96.1073C14.7404 98.5682 17.7119 101.659 18.9854 106.141V110.36C16.4969 113.187 14.1109 116.131 11.4761 118.812C10.027 120.292 8.05085 121.244 6.48459 122.621C2.19569 126.429 2.13713 131.498 6.30894 135.409C7.49461 136.522 8.79738 137.533 10.1733 138.411C14.067 140.887 17.302 143.919 19 148.328V153.25C16.4969 156.077 14.1109 159.007 11.4615 161.688C9.83667 163.328 7.64099 164.398 5.97227 165.994C2.37134 169.437 2.34206 174.285 5.85516 177.801C7.15794 179.104 8.66564 180.276 10.2173 181.287C14.0817 183.792 17.3752 186.751 19 191.233C19 192.874 19 194.514 19 196.155C16.3066 199.114 13.6864 202.146 10.876 204.988C9.5 206.379 7.62635 207.273 6.19183 208.621C2.28351 212.283 2.26887 217.249 6.11864 220.925C7.3775 222.126 8.79738 223.196 10.2465 224.148C14.1109 226.653 17.4045 229.626 19 234.109V239.03C16.7458 243.674 12.8374 246.692 8.66564 249.445C5.57704 251.496 3.22034 254.089 2.83975 258H0C0 256.857 0 255.686 0 254.514C2.56163 251.745 5.03544 248.874 7.71418 246.223C9.44145 244.524 11.6664 243.322 13.3351 241.579C16.3359 238.445 16.3066 234.065 13.3205 230.901C11.9006 229.392 10.0123 228.337 8.5339 226.872C5.62096 223.957 2.83975 220.925 0 217.952C0 215.842 0 213.733 0 211.624C2.19569 209.133 4.25963 206.497 6.63097 204.197C8.69492 202.19 11.3297 200.74 13.3498 198.689C16.2188 195.789 16.3652 191.57 13.7596 188.553C12.2666 186.824 10.1441 185.638 8.50462 184.012C5.59168 181.097 2.82512 178.05 0 175.061C0 172.952 0 170.843 0 168.733C2.40062 166.111 4.68413 163.387 7.21649 160.911C9.03159 159.139 11.359 157.879 13.1448 156.077C16.3652 152.811 16.3945 148.446 13.2766 145.135C11.8567 143.626 9.93914 142.601 8.47535 141.136C5.57704 138.236 2.81048 135.174 0 132.171C0 130.062 0 127.953 0 125.843C3.52774 122.416 6.90909 118.797 10.6564 115.619C14.6965 112.191 16.6579 109.042 15.0917 105.585C14.0524 103.285 12.0909 101.176 10.0709 99.6082C6.22111 96.6053 2.06394 93.998 0 89.2812C0 87.1865 0 85.0772 0 82.9678C3.46918 79.6133 6.70416 75.9659 10.4368 72.963C17.2581 67.4846 17.2142 62.138 10.3344 56.762C6.63097 53.8617 3.42527 50.3461 0 47.1088Z" fill="#1673D8"/>
</svg>
