<?xml version="1.0" encoding="UTF-8"?>
<svg id="Calque_2" data-name="Calque 2" xmlns="http://www.w3.org/2000/svg" viewBox="0 0 81.17 78.1">
  <defs>
    <style>
      .cls-1 {
        fill: #fff;
      }
    </style>
  </defs>
  <g id="Calque_1-2" data-name="Calque 1">
    <g>
      <g>
        <path class="cls-1" d="M81.08,59.16c-.41-4.61-2.56-8.22-6.42-10.78-.9-.6-1.88-1.09-2.85-1.65,.13-.08,.27-.17,.4-.26,2.89-1.8,4.92-4.28,5.97-7.53,.8-2.46,.93-4.98,.59-7.52-.71-5.41-3.54-9.27-8.5-11.57-2.51-1.16-5.18-1.71-7.92-1.96-.66-.06-1.32-.12-1.97-.18h-27.41c0,.06-.01,.11-.01,.17,0,6.42,0,12.85,0,19.28,0,.2,.1,.44,.23,.61,4.22,5.73,8.45,11.45,12.68,17.18,.4,.55,.92,.72,1.48,.53,.52-.18,.83-.65,.84-1.3,0-1.01,0-2.01,0-3.02v-.74h.61c3.08,0,6.16,0,9.24,0,.54,0,1.08,0,1.61,.06,2.79,.33,4.84,1.7,5.82,4.41,.53,1.47,.54,2.99,.28,4.53-.59,3.53-3.16,5.72-6.73,5.72h-10.29c.05,.1,.05,.13,.07,.15,3.09,4.19,6.18,8.37,9.28,12.55,.1,.13,.32,.22,.49,.23,1.02,.01,2.04,0,3.06-.01,2.92-.05,5.79-.47,8.55-1.45,3.52-1.26,6.46-3.28,8.48-6.49,2.11-3.36,2.75-7.07,2.4-10.97Zm-2.01,2.12c-.07,2.69-.63,5.25-2.06,7.57-1.78,2.9-4.42,4.7-7.57,5.82-2.49,.88-5.08,1.26-7.72,1.32-.7,.01-1.39,.04-2.08,.02-.16,0-.37-.1-.45-.22-2.06-2.76-4.1-5.54-6.15-8.31-.03-.04-.06-.09-.13-.22h6.23c4.43,0,7.87-2.89,8.66-7.26,.36-2.02,.34-4.02-.39-5.95-1.24-3.26-3.69-5.03-7.07-5.57-.57-.09-1.16-.11-1.73-.11-3.96,0-7.92,0-11.88,0h-.6v3.2s-.09,.05-.13,.08c-.04-.08-.08-.17-.13-.24-3.54-4.8-7.09-9.61-10.63-14.41-.11-.16-.18-.39-.18-.59-.01-5.38,0-10.76,0-16.13,0-.12,.02-.25,.03-.43h.47c7.83,0,15.66,0,23.5,0,3.24,0,6.42,.36,9.46,1.54,2.89,1.12,5.25,2.89,6.76,5.66,.93,1.7,1.38,3.53,1.53,5.44,.19,2.31-.01,4.57-.92,6.71-1.38,3.24-3.81,5.36-7.05,6.62-1.03,.4-2.06,.76-3.21,1.18,1.48,.45,2.85,.82,4.18,1.29,2.83,1,5.28,2.54,7.05,5.03,1.7,2.38,2.3,5.08,2.23,7.96Z"/>
        <path class="cls-1" d="M66.25,34.62c-.28-2.52-1.51-4.35-3.92-5.31-1.38-.55-2.82-.7-4.29-.7-3.8,0-7.6,0-11.4,0h-.51v14.2c.11,0,.21,.01,.31,.01,4.02,0,8.03,.02,12.04-.01,.96-.01,1.93-.13,2.86-.35,2.27-.52,3.92-1.79,4.61-4.1,.37-1.22,.44-2.48,.3-3.75Zm-2.2,2.78c-.38,1.77-1.59,2.69-3.27,3.05-.74,.16-1.51,.26-2.27,.27-3.3,.02-6.61,.01-9.91,.01-.11,0-.22-.01-.35-.02v-10.03h.5c3.08,0,6.16-.01,9.24,0,1.19,0,2.38,.11,3.51,.54,1.44,.55,2.32,1.56,2.61,3.09,.2,1.03,.18,2.06-.04,3.08Z"/>
      </g>
      <path class="cls-1" d="M.48,51.91c-.08,.09-.28,.08-.43,.12,0-17.19,0-34.38,0-51.56C.67-.14,1.45,.02,2.2,.02c2.56,0,5.11,.03,7.66-.02,.92-.01,1.17,.13,1.17,1.23,0,6.16,0,12.33,0,18.49v5.71c1.14-1.39,2.21-2.68,3.27-3.98,1.21-1.49,2.41-3,3.62-4.49,1.62-2.02,3.24-4.04,4.87-6.05,1.43-1.76,2.9-3.5,4.33-5.26,1.37-1.68,2.7-3.4,4.08-5.07,.22-.27,.63-.54,.96-.54,3.58-.04,9.8-.02,13.6-.02-7.8,9.64-15.5,19.16-23.25,28.73l21.04,27.04h-9.48c-.95,0-1.89-.2-2.73-.62-.41-.21-.8-.47-1.04-.78-1.5-1.95-3.06-3.86-4.59-5.79-1.65-2.09-3.28-4.18-4.94-6.27-1.49-1.87-3-3.72-4.51-5.59-.35-.44-.7-.89-1.1-1.38L.48,51.91Z"/>
      <path class="cls-1" d="M48.33,63.66H1.1c-1.78,.09-.81-3.61-1.05-4.54,0-.58,.47-1.05,1.05-1.05H51.6c2.98,1.32-.7,6.02-3.27,5.58Z"/>
    </g>
  </g>
</svg>